<svg width="85" height="20" viewBox="0 0 85 20" fill="none" xmlns="http://www.w3.org/2000/svg">
<g clip-path="url(#clip0_26998_277010)">
<g clip-path="url(#clip1_26998_277010)">
<path d="M35.983 8.92685C36.6381 8.34143 37.4388 8.05469 38.3973 8.05469C39.3678 8.05469 40.1685 8.34143 40.8236 8.92685C41.4788 9.50033 41.8063 10.253 41.8063 11.173C41.8063 12.081 41.4788 12.8337 40.8236 13.4071C40.1806 13.9687 39.3799 14.2554 38.4094 14.2554C37.4388 14.2554 36.6381 13.9687 35.983 13.4071C35.34 12.8337 35.0125 12.081 35.0125 11.173C35.0125 10.253 35.34 9.50033 35.983 8.92685ZM38.4094 12.5947C39.1737 12.5947 39.7803 12.0332 39.7803 11.173C39.7803 10.3008 39.1737 9.71538 38.4094 9.71538C37.6451 9.71538 37.0385 10.3008 37.0385 11.173C37.0385 12.0332 37.6572 12.5947 38.4094 12.5947Z" fill="#063A4F" fill-opacity="0.5"/>
<path d="M46.38 8.05469C45.5308 8.05469 44.8878 8.40116 44.4753 9.08217H44.4511L44.4632 8.9388V8.85517C44.4632 8.43701 44.172 8.18611 43.6261 8.18611H41.8306V9.85875H42.2794C42.4614 9.85875 42.5342 9.94238 42.5342 10.1096V14.112H44.5602V11.4836C44.5602 11.1849 44.5966 10.9221 44.6816 10.707C44.8757 10.1455 45.276 9.85875 45.8705 9.85875C46.3194 9.85875 46.5377 10.1216 46.5377 10.6353V13.2757C46.5377 13.8611 46.7925 14.112 47.387 14.112H48.5516V10.2769C48.5516 8.78348 47.8237 8.05469 46.38 8.05469Z" fill="#063A4F" fill-opacity="0.5"/>
<path d="M49.9955 5.89062V7.50353H51.6939V5.89062H49.9955ZM51.0145 8.18453H49.1462V9.85717H49.5951C49.765 9.85717 49.8499 9.9408 49.8499 10.1081V13.2741C49.8499 13.8596 50.1047 14.1105 50.6991 14.1105H51.8638V9.0328C51.8638 8.43543 51.609 8.18453 51.0145 8.18453Z" fill="#063A4F" fill-opacity="0.5"/>
<path d="M53.4287 8.9388C53.9989 8.35337 54.7632 8.05469 55.7095 8.05469C56.5709 8.05469 57.2503 8.31753 57.7477 8.85517C58.2451 9.38085 58.4999 10.0738 58.4999 10.9101C58.4999 11.0535 58.4877 11.2566 58.4513 11.5314H54.654C54.7996 12.2243 55.3698 12.5947 56.0613 12.5947C56.5588 12.5947 57.1168 12.4036 57.7234 11.9973L58.4756 13.3952C57.8326 13.9328 56.8378 14.2554 55.9036 14.2554C54.8845 14.2554 54.0838 13.9448 53.4894 13.3355C52.8949 12.7261 52.6038 11.9854 52.6038 11.1491C52.5795 10.265 52.8585 9.52422 53.4287 8.9388ZM56.4981 10.3964C56.4981 9.89459 56.1705 9.51227 55.6731 9.51227C55.1636 9.51227 54.836 9.81096 54.7026 10.3964H56.4981Z" fill="#063A4F" fill-opacity="0.5"/>
<path d="M59.2156 8.29181H60.271V8.80555C60.271 9.04449 60.2347 9.2476 60.2347 9.2476H60.2589C60.635 8.5427 61.3872 8.14844 62.2485 8.14844C63.8499 8.14844 64.8448 9.39097 64.8448 11.195C64.8448 13.0469 63.7165 14.2416 62.1636 14.2416C61.4114 14.2416 60.7321 13.8713 60.3317 13.25H60.3074C60.3074 13.25 60.356 13.4531 60.356 13.7518V16.4041H59.2277V8.29181H59.2156ZM61.9938 13.2858C62.9279 13.2858 63.7044 12.5331 63.7044 11.2189C63.7044 9.9525 63.0128 9.14007 62.0302 9.14007C61.1445 9.14007 60.3196 9.76134 60.3196 11.2309C60.3196 12.2584 60.9019 13.2858 61.9938 13.2858Z" fill="#063A4F" fill-opacity="0.5"/>
<path d="M68.5694 8.14844C70.3407 8.14844 71.7601 9.42681 71.7601 11.1831C71.7601 12.9513 70.3286 14.2416 68.5816 14.2416C66.8103 14.2416 65.3909 12.9513 65.3909 11.1831C65.3909 9.42681 66.8224 8.14844 68.5694 8.14844ZM68.5816 13.2858C69.6977 13.2858 70.6197 12.4137 70.6197 11.195C70.6197 9.98834 69.6977 9.12813 68.5816 9.12813C67.4533 9.12813 66.5434 9.98834 66.5434 11.195C66.5555 12.4137 67.4654 13.2858 68.5816 13.2858Z" fill="#063A4F" fill-opacity="0.5"/>
<path d="M72.6458 5.98438H73.8104V7.10743H72.6458V5.98438ZM72.67 8.29023H73.7983V14.1206H72.67V8.29023Z" fill="#063A4F" fill-opacity="0.5"/>
<path d="M75.072 8.29181H76.176V9.08034C76.176 9.31929 76.1396 9.52239 76.1396 9.52239H76.1639C76.3823 9.0206 77.1102 8.14844 78.4083 8.14844C79.8035 8.14844 80.4343 8.90113 80.4343 10.3826V14.1102H79.3061V10.6335C79.3061 9.82108 79.1483 9.17592 78.1899 9.17592C77.0374 9.17592 76.2124 10.1198 76.2124 11.3145V14.1102H75.0842V8.29181H75.072Z" fill="#063A4F" fill-opacity="0.5"/>
<path d="M81.9024 9.2562H81.126V8.34819H81.9267V6.6875H83.0428V8.34819H84.4744V9.2562H83.0428V11.8607C83.0428 13.0196 83.8678 13.175 84.3045 13.175C84.3895 13.175 84.4622 13.175 84.5714 13.1511V14.1427C84.4744 14.1546 84.3531 14.1785 84.1711 14.1785C83.4068 14.1785 81.9024 13.9396 81.9024 11.9922V9.2562Z" fill="#063A4F" fill-opacity="0.5"/>
<path d="M34.3696 10.5979L33.9814 5.89062H31.6156C31.6156 5.89062 29.808 9.52264 29.6624 10.0125H29.6381L27.7456 5.89062H25.3798L24.9916 9.97665L24.6641 14.1224H26.1078C26.7265 14.1224 26.9813 13.8596 27.0298 13.2144C27.0298 13.2144 27.2724 9.41512 27.236 8.86554H27.2603L27.3331 9.11643C27.4301 9.45096 28.7768 12.6887 28.7768 12.6887H30.548C30.548 12.6887 31.8947 9.49875 32.0645 8.86554H32.0888L32.295 13.2144C32.3436 13.8596 32.5983 14.1224 33.2171 14.1224H34.6608L34.3696 10.5979Z" fill="#063A4F" fill-opacity="0.5"/>
<path fill-rule="evenodd" clip-rule="evenodd" d="M10.118 20H10.1908C14.898 20 18.0523 19.0323 18.7074 18.4229C19.3989 17.8136 20.3088 14.6476 20.3088 10C20.3088 5.35245 19.3989 2.18638 18.7074 1.57706C18.0523 0.979689 14.898 0.0119474 10.1908 0H10.118C5.42296 0.0119474 2.25653 0.979689 1.60141 1.57706C0.909892 2.18638 0 5.35245 0 10C0 14.6595 0.909892 17.8136 1.60141 18.4229C2.25653 19.0203 5.41083 19.9881 10.118 20ZM14.4489 5.92598L14.8371 10.5974L15.104 14.0861H13.6724C13.0658 14.0861 12.8111 13.8232 12.7625 13.1781L12.5563 8.86506H12.532C12.3622 9.49827 11.0277 12.6643 11.0277 12.6643H9.26855C9.26855 12.6643 7.93404 9.45048 7.83699 9.11595L7.76419 8.86506H7.73993C7.77633 9.41464 7.53369 13.1781 7.53369 13.1781C7.48516 13.8232 7.24252 14.0861 6.6238 14.0861H5.19223L5.5198 9.97617L5.90802 5.92598H8.2616L10.142 10.012H10.1663C10.324 9.52216 12.1074 5.92598 12.1074 5.92598H14.4489Z" fill="#063A4F" fill-opacity="0.5"/>
</g>
</g>
<defs>
<clipPath id="clip0_26998_277010">
<rect width="84.5714" height="20" fill="white"/>
</clipPath>
<clipPath id="clip1_26998_277010">
<rect width="84.5714" height="20" fill="white"/>
</clipPath>
</defs>
</svg>
