<svg width="85" height="20" viewBox="0 0 85 20" fill="none" xmlns="http://www.w3.org/2000/svg">
<g clip-path="url(#clip0_26962_288501)">
<g clip-path="url(#clip1_26962_288501)">
<path d="M35.9828 8.92685C36.6379 8.34143 37.4386 8.05469 38.397 8.05469C39.3676 8.05469 40.1683 8.34143 40.8234 8.92685C41.4785 9.50033 41.8061 10.253 41.8061 11.173C41.8061 12.081 41.4785 12.8337 40.8234 13.4071C40.1804 13.9687 39.3797 14.2554 38.4091 14.2554C37.4386 14.2554 36.6379 13.9687 35.9828 13.4071C35.3398 12.8337 35.0122 12.081 35.0122 11.173C35.0122 10.253 35.3398 9.50033 35.9828 8.92685ZM38.4091 12.5947C39.1735 12.5947 39.78 12.0332 39.78 11.173C39.78 10.3008 39.1735 9.71538 38.4091 9.71538C37.6448 9.71538 37.0382 10.3008 37.0382 11.173C37.0382 12.0332 37.657 12.5947 38.4091 12.5947Z" fill="rgba(255,255,255,0.7)"/>
<path d="M46.38 8.05469C45.5308 8.05469 44.8878 8.40116 44.4753 9.08217H44.4511L44.4632 8.9388V8.85517C44.4632 8.43701 44.172 8.18611 43.6261 8.18611H41.8306V9.85875H42.2794C42.4614 9.85875 42.5342 9.94238 42.5342 10.1096V14.112H44.5602V11.4836C44.5602 11.1849 44.5966 10.9221 44.6816 10.707C44.8757 10.1455 45.276 9.85875 45.8705 9.85875C46.3194 9.85875 46.5377 10.1216 46.5377 10.6353V13.2757C46.5377 13.8611 46.7925 14.112 47.387 14.112H48.5516V10.2769C48.5516 8.78348 47.8237 8.05469 46.38 8.05469Z" fill="rgba(255,255,255,0.7)"/>
<path d="M49.9952 5.89062V7.50353H51.6937V5.89062H49.9952ZM51.0143 8.18453H49.146V9.85717H49.5949C49.7647 9.85717 49.8496 9.9408 49.8496 10.1081V13.2741C49.8496 13.8596 50.1044 14.1105 50.6989 14.1105H51.8635V9.0328C51.8635 8.43543 51.6088 8.18453 51.0143 8.18453Z" fill="rgba(255,255,255,0.7)"/>
<path d="M53.429 8.9388C53.9992 8.35337 54.7635 8.05469 55.7098 8.05469C56.5711 8.05469 57.2505 8.31753 57.7479 8.85517C58.2453 9.38085 58.5001 10.0738 58.5001 10.9101C58.5001 11.0535 58.488 11.2566 58.4516 11.5314H54.6543C54.7999 12.2243 55.3701 12.5947 56.0616 12.5947C56.559 12.5947 57.1171 12.4036 57.7237 11.9973L58.4758 13.3952C57.8328 13.9328 56.838 14.2554 55.9039 14.2554C54.8848 14.2554 54.0841 13.9448 53.4896 13.3355C52.8952 12.7261 52.604 11.9854 52.604 11.1491C52.5797 10.265 52.8588 9.52422 53.429 8.9388ZM56.4983 10.3964C56.4983 9.89459 56.1708 9.51227 55.6734 9.51227C55.1638 9.51227 54.8363 9.81096 54.7028 10.3964H56.4983Z" fill="rgba(255,255,255,0.7)"/>
<path d="M59.2158 8.29181H60.2713V8.80555C60.2713 9.04449 60.2349 9.2476 60.2349 9.2476H60.2592C60.6352 8.5427 61.3874 8.14844 62.2488 8.14844C63.8502 8.14844 64.845 9.39097 64.845 11.195C64.845 13.0469 63.7167 14.2416 62.1639 14.2416C61.4117 14.2416 60.7323 13.8713 60.3319 13.25H60.3077C60.3077 13.25 60.3562 13.4531 60.3562 13.7518V16.4041H59.228V8.29181H59.2158ZM61.994 13.2858C62.9282 13.2858 63.7046 12.5331 63.7046 11.2189C63.7046 9.9525 63.0131 9.14007 62.0304 9.14007C61.1448 9.14007 60.3198 9.76134 60.3198 11.2309C60.3198 12.2584 60.9021 13.2858 61.994 13.2858Z" fill="rgba(255,255,255,0.7)"/>
<path d="M68.5692 8.14844C70.3404 8.14844 71.7599 9.42681 71.7599 11.1831C71.7599 12.9513 70.3283 14.2416 68.5813 14.2416C66.8101 14.2416 65.3906 12.9513 65.3906 11.1831C65.3906 9.42681 66.8222 8.14844 68.5692 8.14844ZM68.5813 13.2858C69.6975 13.2858 70.6195 12.4137 70.6195 11.195C70.6195 9.98834 69.6975 9.12813 68.5813 9.12813C67.453 9.12813 66.5432 9.98834 66.5432 11.195C66.5553 12.4137 67.4652 13.2858 68.5813 13.2858Z" fill="rgba(255,255,255,0.7)"/>
<path d="M72.646 5.98438H73.8107V7.10743H72.646V5.98438ZM72.6703 8.29023H73.7985V14.1206H72.6703V8.29023Z" fill="rgba(255,255,255,0.7)"/>
<path d="M75.0723 8.29181H76.1763V9.08034C76.1763 9.31929 76.1399 9.52239 76.1399 9.52239H76.1641C76.3825 9.0206 77.1104 8.14844 78.4085 8.14844C79.8037 8.14844 80.4346 8.90113 80.4346 10.3826V14.1102H79.3063V10.6335C79.3063 9.82108 79.1486 9.17592 78.1902 9.17592C77.0376 9.17592 76.2127 10.1198 76.2127 11.3145V14.1102H75.0844V8.29181H75.0723Z" fill="rgba(255,255,255,0.7)"/>
<path d="M81.9024 9.2562H81.126V8.34819H81.9267V6.6875H83.0428V8.34819H84.4744V9.2562H83.0428V11.8607C83.0428 13.0196 83.8678 13.175 84.3045 13.175C84.3895 13.175 84.4622 13.175 84.5714 13.1511V14.1427C84.4744 14.1546 84.3531 14.1785 84.1711 14.1785C83.4068 14.1785 81.9024 13.9396 81.9024 11.9922V9.2562Z" fill="rgba(255,255,255,0.7)"/>
<path d="M34.3696 10.5979L33.9814 5.89062H31.6156C31.6156 5.89062 29.808 9.52264 29.6624 10.0125H29.6381L27.7456 5.89062H25.3798L24.9916 9.97665L24.6641 14.1224H26.1078C26.7265 14.1224 26.9813 13.8596 27.0298 13.2144C27.0298 13.2144 27.2724 9.41512 27.236 8.86554H27.2603L27.3331 9.11643C27.4301 9.45096 28.7768 12.6887 28.7768 12.6887H30.548C30.548 12.6887 31.8947 9.49875 32.0645 8.86554H32.0888L32.295 13.2144C32.3436 13.8596 32.5983 14.1224 33.2171 14.1224H34.6608L34.3696 10.5979Z" fill="rgba(255,255,255,0.7)"/>
<path fill-rule="evenodd" clip-rule="evenodd" d="M10.118 20H10.1908C14.898 20 18.0523 19.0323 18.7074 18.4229C19.3989 17.8136 20.3088 14.6475 20.3088 10C20.3088 5.35245 19.3989 2.18638 18.7074 1.57706C18.0523 0.979689 14.898 0.0119474 10.1908 0H10.118C5.42296 0.0119474 2.25653 0.979689 1.60141 1.57706C0.909892 2.18638 0 5.35245 0 10C0 14.6595 0.909892 17.8136 1.60141 18.4229C2.25653 19.0203 5.41083 19.9881 10.118 20ZM14.4489 5.92595L14.8371 10.5974L15.104 14.0861H13.6724C13.0658 14.0861 12.8111 13.8232 12.7625 13.1781L12.5563 8.86502H12.532C12.3622 9.49824 11.0277 12.6643 11.0277 12.6643H9.26855C9.26855 12.6643 7.93404 9.45045 7.83699 9.11592L7.76419 8.86502H7.73993C7.77633 9.41461 7.53369 13.1781 7.53369 13.1781C7.48516 13.8232 7.24252 14.0861 6.6238 14.0861H5.19223L5.5198 9.97614L5.90802 5.92595H8.2616L10.142 10.012H10.1663C10.324 9.52213 12.1074 5.92595 12.1074 5.92595H14.4489Z" fill="rgba(255,255,255,0.7)"/>
</g>
</g>
<defs>
<clipPath id="clip0_26962_288501">
<rect width="84.5714" height="20" fill="rgba(255,255,255,0.7)"/>
</clipPath>
<clipPath id="clip1_26962_288501">
<rect width="84.5714" height="20" fill="rgba(255,255,255,0.7)"/>
</clipPath>
</defs>
</svg>
